<?xml version="1.0" standalone="no"?><!DOCTYPE svg PUBLIC "-//W3C//DTD SVG 1.1//EN" "http://www.w3.org/Graphics/SVG/1.1/DTD/svg11.dtd"><svg t="1782981741719" class="icon" viewBox="0 0 1024 1024" version="1.1" xmlns="http://www.w3.org/2000/svg" p-id="10275" xmlns:xlink="http://www.w3.org/1999/xlink" width="200" height="200"><path d="M312.888889 71.205926H142.222222a83.816296 83.816296 0 0 0-85.333333 85.333333v170.666667a85.333333 85.333333 0 0 0 85.333333 85.333333h170.666667a83.816296 83.816296 0 0 0 85.333333-85.333333v-170.666667a83.816296 83.816296 0 0 0-85.333333-85.333333z m28.444444 256a26.832593 26.832593 0 0 1-28.444444 28.444444H142.222222a26.832593 26.832593 0 0 1-28.444444-28.444444v-170.666667a26.832593 26.832593 0 0 1 28.444444-28.444444h170.666667a26.832593 26.832593 0 0 1 28.444444 28.444444zM818.062222 639.905185a41.14963 41.14963 0 0 1 39.727408 41.434074 39.253333 39.253333 0 0 1-39.727408 41.434074 40.485926 40.485926 0 0 1-41.434074-41.434074 41.908148 41.908148 0 0 1 41.434074-41.434074m0-56.888889a98.986667 98.986667 0 0 0-98.322963 98.228148 97.374815 97.374815 0 0 0 98.322963 98.322963 96.047407 96.047407 0 0 0 96.616297-98.322963 98.133333 98.133333 0 0 0-96.616297-98.228148zM844.705185 842.24a56.888889 56.888889 0 0 1 31.573334 8.343704l1.422222 1.042963 1.517037 0.948148a67.128889 67.128889 0 0 1 29.487407 41.718518c-17.066667 1.706667-42.856296 1.706667-63.241481 1.706667h-56.888889c-17.161481 0-44.942222 0-63.241482-1.896296a69.783704 69.783704 0 0 1 29.487408-43.235556 62.103704 62.103704 0 0 1 32.995555-8.438518h56.888889m0-56.888889h-56.888889a118.044444 118.044444 0 0 0-64.948148 18.299259 126.008889 126.008889 0 0 0-55.751111 104.296296v7.490371c0 36.598519 53.285926 37.925926 121.647407 37.925926h56.888889c68.266667 0 121.647407 0 121.647408-37.925926v-7.490371a123.259259 123.259259 0 0 0-57.457778-103.253333 112.355556 112.355556 0 0 0-64.948148-18.962963z" fill="#0097FF" p-id="10276"></path><path d="M905.433921 348.854081m6.70442 6.70442l26.817679 26.81768q6.70442 6.70442 0 13.408839l-107.270718 107.270718q-6.70442 6.70442-13.408839 0l-26.81768-26.817679q-6.70442-6.70442 0-13.40884l107.270718-107.270718q6.70442-6.70442 13.40884 0Z" fill="#0097FF" p-id="10277"></path><path d="M864.903885 469.434699m-6.70442 6.70442l-26.817679 26.81768q-6.70442 6.70442-13.40884 0l-107.270718-107.270718q-6.70442-6.70442 0-13.40884l26.81768-26.817679q6.70442-6.70442 13.40884 0l107.270717 107.270717q6.70442 6.70442 0 13.40884Z" fill="#0097FF" p-id="10278"></path><path d="M159.057039 526.273036m6.70442-6.704419l26.817679-26.81768q6.70442-6.70442 13.40884 0l107.270717 107.270718q6.70442 6.70442 0 13.40884l-26.817679 26.817679q-6.70442 6.70442-13.40884 0l-107.270717-107.270718q-6.70442-6.70442 0-13.408839Z" fill="#0097FF" p-id="10279"></path><path d="M118.42481 647.000001m-6.70442-6.70442l-26.817679-26.817679q-6.70442-6.70442 0-13.40884l107.270717-107.270717q6.70442-6.70442 13.40884 0l26.817679 26.817679q6.70442 6.70442 0 13.40884l-107.270717 107.270717q-6.70442 6.70442-13.40884 0Z" fill="#0097FF" p-id="10280"></path><path d="M824.888889 497.872593a28.444444 28.444444 0 0 1-28.444445-28.444445v-113.777778a142.222222 142.222222 0 0 0-142.222222-142.222222H540.444444a28.444444 28.444444 0 0 1-28.444444-28.444444 28.444444 28.444444 0 0 1 28.444444-28.444445h113.777778a199.111111 199.111111 0 0 1 199.111111 199.111111v113.777778a28.444444 28.444444 0 0 1-28.444444 28.444445zM483.555556 839.205926H369.777778a199.111111 199.111111 0 0 1-199.111111-199.111111v-113.777778a28.444444 28.444444 0 0 1 28.444444-28.444444 28.444444 28.444444 0 0 1 28.444445 28.444444v113.777778a142.222222 142.222222 0 0 0 142.222222 142.222222h113.777778a28.444444 28.444444 0 0 1 28.444444 28.444444 28.444444 28.444444 0 0 1-28.444444 28.444445z" fill="#0097FF" p-id="10281"></path></svg>