<?xml version="1.0" standalone="no"?><!DOCTYPE svg PUBLIC "-//W3C//DTD SVG 1.1//EN" "http://www.w3.org/Graphics/SVG/1.1/DTD/svg11.dtd"><svg t="1782975225897" class="icon" viewBox="0 0 1024 1024" version="1.1" xmlns="http://www.w3.org/2000/svg" p-id="1653" xmlns:xlink="http://www.w3.org/1999/xlink" width="200" height="200"><path d="M917.333333 490.666667V366.634667h-43.946666V490.666667h-35.072V337.706667h-43.946667v95.445333h-34.602667V128h-43.989333v209.706667h-43.093333V490.666667h-37.077334V409.301333h-43.946666v23.893334h-35.754667V199.552h-43.946667v185.856h-41.728V490.666667h-35.285333V409.301333H391.125333V271.189333h-43.946666V490.666667h-30.421334V361.557333h-42.581333V175.786667h-43.946667v161.962666h-42.666666V490.666667h-36.906667V366.634667H106.666667v290.730666h43.946666V533.333333h36.992v152.96h42.581334v161.962667h43.946666v-185.813333h42.666667V533.333333h30.336v150.784h43.989333v-69.418666h43.818667V533.333333h35.285333v105.216h41.685334v185.856h43.946666v-233.557333h35.754667v26.026667h43.989333V533.333333h37.12v129.109334h43.050667V896h43.946667v-305.152h34.602666v71.594667h43.989334V533.333333h35.029333v124.032H917.333333V533.333333z" fill="#C8CBD3" p-id="1654"></path><path d="M391.125333 409.301333V271.189333h-43.946666V490.666667h-30.421334V361.557333h-42.581333V175.786667h-43.946667v161.962666h-42.666666V490.666667h-36.906667V366.634667H106.666667v290.730666h43.946666V533.333333h36.992v152.96h42.581334v161.962667h43.946666v-185.813333h42.666667V533.333333h30.336v150.784h43.989333v-69.418666z" fill="#49A4FF" p-id="1655"></path></svg>