<?xml version="1.0" standalone="no"?><!DOCTYPE svg PUBLIC "-//W3C//DTD SVG 1.1//EN" "http://www.w3.org/Graphics/SVG/1.1/DTD/svg11.dtd"><svg t="1782975069339" class="icon" viewBox="0 0 25600 1024" version="1.1" xmlns="http://www.w3.org/2000/svg" p-id="24192" xmlns:xlink="http://www.w3.org/1999/xlink" width="5000" height="200"><path d="M-375.34681121 3879.51823331c149.31768839 202.53983594 426.66421175 239.94317613 619.74232562 83.38136338 59.87491241-48.49128657 106.73997462-112.35786763 136.30783123-185.24263718l11.53146582-31.63760737L2465.68094388-2622.74970147c26.3153941-80.72025324 109.99243721-123.88933329 187.01671525-96.2433809a145.76954623 145.76954623 0 0 1 49.52616525 30.15921602l13.60120967 14.1925759 2870.74345855 3442.14233747L7698.15716457 767.50104702l0-308.98413076L5720.06738089 458.51691626 2937.43613969-2878.21600511a443.37005098 443.37005098 0 0 0-158.63156365-120.78470383l-31.04625486-12.56633758c-222.49814461-79.83322113-463.91971223 37.55118017-551.58841014 263.30178721l-9.16603523 25.57619492-2073.44613246 6368.76905364c-9.31387504 28.6808246-26.46323394 53.81350684-49.23048564 72.29341712a142.22140391 142.22140391 0 0 1-194.40867948-13.30553684l-12.12281824-14.48825555L-2521.23420073 458.36907655-4128.98654983 458.36907655l0 309.13197047 1463.16551469 0 2290.62206374 3112.01718629z m100579.06503273-3112.01718629L97332.9747629-2674.64129045l-13.60121642-14.1925759a145.76954623 145.76954623 0 0 0-49.52616546-30.15921602c-71.55421799-25.72403471-148.72632902 9.60955482-180.51177632 79.53754168l-6.50493196 16.70583922-2073.44613253 6368.76905361-11.53146571 31.63760737c-29.56785666 72.88477652-76.43291872 136.75135073-136.30783121 185.24263718-185.98183642 150.79607988-450.02281593 121.81958249-602.59297377-61.50114366l-17.00151904-21.88021972-2290.62205677-3112.01718629-3574.75418666 0L85505.83104869-2674.64129045l-13.60121667-14.1925759a145.76954623 145.76954623 0 0 0-49.52616535-30.15921602c-71.55421799-25.72403471-148.72632902 9.60955482-180.51178313 79.53754152l-6.50492526 16.70583938-2073.44613237 6368.76905361-11.53146577 31.63760737c-29.56785666 72.88477652-76.43291872 136.75135073-136.3078313 185.24263718-185.98183642 150.79607988-450.02281593 121.81958249-602.59297378-61.50114368l-17.00151895-21.8802197-2290.62205675-3112.01718629-3574.75419353 0L73678.68732728-2674.64129045l-13.60120954-14.1925759a145.76954623 145.76954623 0 0 0-49.52616537-30.15921602c-71.55421799-25.72403471-148.72632902 9.60955482-180.51178329 79.53754152l-6.5049252 16.70583938-2073.44613235 6368.76905361-11.53146573 31.63760737c-29.56785666 72.88477652-76.43291872 136.75135073-136.30783123 185.24263718-185.98183642 150.79607988-450.02281593 121.81958249-602.59297397-61.50114368l-17.00151889-21.8802197-2290.62206355-3112.01718629-3574.75418674 0L61851.5436128-2674.64129045l-13.6012164-14.1925759a145.76954623 145.76954623 0 0 0-49.52615841-30.15921602c-71.55421799-25.72403471-148.72632902 9.60955482-180.51178329 79.53754152l-6.504932 16.70583938-2073.44613252 6368.76905361-11.53146579 31.63760728c-29.56785666 72.88477652-76.43291872 136.75135073-136.30783114 185.24263727-185.98183642 150.79607988-450.02281593 121.81958249-602.5929669-61.50114368l-17.00151893-21.8802197-2290.6220637-3112.0171863-3574.75418665 1e-8L50024.39989855-2674.64129045l-13.6012166-14.1925759a145.76954623 145.76954623 0 0 0-49.52616539-30.15921602c-71.55421799-25.72403471-148.72632902 9.60955482-180.51177609 79.53754152l-6.50493224 16.70583938-2073.44613238 6368.76905361-11.5314658 31.63760728c-29.56785666 72.88477652-76.43291872 136.75135073-136.3078312 185.24263727-185.98183642 150.79607988-450.02281593 121.81958249-602.59297389-61.50114366l-17.0015188-21.88021972-2290.62205692-3112.01718629-3574.75418661 0L38197.25618419-2674.64129045l-13.6012165-14.1925759a145.76954623 145.76954623 0 0 0-49.52616545-30.15921602c-71.55421799-25.72403471-148.72632902 9.60955482-180.51177626 79.53754152l-6.50493209 16.70583938-2073.44613249 6368.76905361-11.53146574 31.63760737c-29.56785666 72.88477652-76.43291872 136.75135073-136.30783107 185.24263718-185.98183642 150.79607988-450.02281593 121.81958249-602.59297401-61.50114366l-17.00151897-21.88021972-2290.6220568-3112.01718629-3574.75418656 0L26370.11246974-2674.64129045l-13.60121655-14.1925759a145.76954623 145.76954623 0 0 0-49.52616531-30.15921602c-71.55421799-25.72403471-148.72632902 9.60955482-180.51178314 79.53754152l-6.50492525 16.70583938-2073.44613241 6368.76905361-11.53146583 31.63760737c-29.56785666 72.88477652-76.43291872 136.75135073-136.30783109 185.24263718-185.98183642 150.79607988-450.02281593 121.81958249-602.59297393-61.50114366l-17.00151897-21.88021972-2290.6220567-3112.01718629-3574.75419366 0L14542.96875538-2674.64129045l-13.60121655-14.1925759a145.76954623 145.76954623 0 0 0-49.52616536-30.15921602c-71.55421799-25.72403471-148.72632902 9.60955482-180.51178318 79.53754152l-6.5049251 16.70583938-2073.44613259 6368.76905361-11.53146571 31.63760737c-29.56785666 72.88477652-76.43291872 136.75135073-136.30783115 185.24263718-185.98183642 150.79607988-450.02281593 121.81958249-602.59297383-61.50114366l-17.00151889-21.88021972-2290.62205683-3112.01718629L7698.15716457 767.50104702l0-308.98413076 1607.75234911-1e-8 2379.0299608 3232.06269773 12.12281818 14.63609533a142.22140391 142.22140391 0 0 0 194.40867951 13.15769706c18.18423063-14.78392831 32.82032611-34.00303779 42.87339334-55.58757789l6.35709231-16.70583923 2073.44613233-6368.91689346 9.16603526-25.4283551c84.26839552-217.32376416 311.34956131-334.11681299 526.89925428-271.28511062l24.83700268 7.98332341 30.89840816 12.56633759c50.56103728 22.61941209 96.68690029 55.14405839 136.01215155 95.65202142l22.61941201 25.1326824 2782.4834012 3336.73292137 3585.98997278-1e-8 2379.02996078 3232.06269773 12.12282512 14.63609533a142.22140391 142.22140391 0 0 0 194.40867245 13.15769706c18.18423063-14.78392831 32.82032611-34.00303779 42.87339339-55.58757789l6.35709229-16.70583923 2073.44613259-6368.91689346 9.16603515-25.4283551c84.26839552-217.32376416 311.34956131-334.11681299 526.89925429-271.28511086l24.83700264 7.98332365 30.89840819 12.56633759c50.56103728 22.61941209 96.68690029 55.14405839 136.01215845 95.65202142l22.61941191 25.1326824 2782.48339432 3336.73292137 3585.98997973 0 2379.02995378 3232.06269772 12.12282506 14.63609533a142.22140391 142.22140391 0 0 0 194.40867253 13.15769706c18.18423063-14.78392831 32.82032611-34.00303779 42.8733935-55.58757789l6.35709229-16.70583923 2073.44613238-6368.91689346 9.16603525-25.4283551c84.26839552-217.32376416 311.34956131-334.11681299 526.89925434-271.28511086l24.83700258 7.98332365 30.89841523 12.56633758c50.56103728 22.61941209 96.68690029 55.14405839 136.01215141 95.65202143l22.6194121 25.1326824 2782.63123401 3336.73292137 3585.84213976 0 2379.02995393 3232.06269772 12.12282518 14.63609533a142.22140391 142.22140391 0 0 0 194.40867254 13.15769706c18.18423063-14.78392831 32.82032611-34.00303779 42.87340036-55.58757789l6.3570853-16.70583923 2073.44613239-6368.91689346 9.16604221-25.4283551c84.26839552-217.32376416 311.34956131-334.11681299 526.89924736-271.28511086l24.8370026 7.98332365 30.89841517 12.56633758c50.56103728 22.61941209 96.68690029 55.14405839 136.01215158 95.65202143l22.61941178 25.1326824 2782.63124121 3336.73292137 3585.84213289 0 2379.02996077 3232.06269772 12.12281813 14.63609533a142.22140391 142.22140391 0 0 0 194.40867941 13.15769706c18.18423063-14.78392831 32.82032611-34.00303779 42.87339354-55.58757789l6.35709224-16.70583923 2073.44613251-6368.91689346 9.16603525-25.4283551c84.26839552-217.32376416 311.34956131-334.11681299 526.89924736-271.28511062l24.83700249 7.98332341 30.89841524 12.56633758c50.56103728 22.61941209 96.68690029 55.14405839 136.01215146 95.65202143l22.619412 25.1326824 2782.63124098 3336.73292136 3585.84213298 1e-8 2379.02996077 3232.06269772 12.12281824 14.63609533a142.22140391 142.22140391 0 0 0 194.40867942 13.15769706c18.18423063-14.78392831 32.82032611-34.00303779 42.87339348-55.58757789l6.35709223-16.70583923 2073.44613239-6368.91689346 9.16603543-25.4283551c84.26839552-217.32376416 311.34956131-334.11681299 526.89925411-271.28511062l24.83700258 7.98332341 30.8984083 12.56633758c50.56103728 22.61941209 96.68690029 55.14405839 136.01215149 95.65202143l22.61941203 25.1326824 2782.63124098 3336.73292136 3585.84213285 1e-8 2379.02996084 3232.06269772 12.12282516 14.63609533a142.22140391 142.22140391 0 0 0 194.40867242 13.15769706c18.18423063-14.78392831 32.82032611-34.00303779 42.87339354-55.58757789l6.3570922-16.70583923 2073.44613244-6368.91689346 9.16603531-25.4283551c84.26839552-217.32376416 311.34956131-334.11681299 526.89925414-271.28511062l24.83700272 7.98332341 30.89840811 12.56633758c50.56103728 22.61941209 96.68690029 55.14405839 136.01215855 95.65202143l22.61941201 25.1326824 2782.48339419 3336.73292137 3585.98997974 0 2379.02995382 3232.06269772 12.12282519 14.63609533a142.22140391 142.22140391 0 0 0 194.4086724 13.15769706c18.18423063-14.78392831 32.82032611-34.00303779 42.87339358-55.58757789l6.35709219-16.70583923 2073.44613239-6368.91689346 9.16603528-25.4283551c84.26839552-217.32376416 311.34956131-334.11681299 526.89925437-271.28511062l24.8370025 7.98332341 30.89841516 12.56633758c50.56103728 22.61941209 96.68690029 55.14405839 136.01215161 95.65202143l22.61941191 25.1326824 2782.48339431 3336.73292137 3585.9899796 0 2379.02995395 3232.06269772 12.12282511 14.63609533a142.22140391 142.22140391 0 0 0 194.40867237 13.15769706c18.18423063-14.78392831 32.82032611-34.00303779 42.87340049-55.58757789l6.35708535-16.70583923 2073.44613242-6368.91689346 9.1660353-25.4283551c84.26839552-217.32376416 311.34956131-334.11681299 526.89925408-271.28511062l24.83700274 7.98332341 30.89841521 12.56633758c50.56103728 22.61941209 96.68690029 55.14405839 136.0121514 95.65202143l22.61941213 25.1326824 2782.63124096 3336.73292137 3585.84213295 0 2379.0299607 3232.06269772 12.12281837 14.63609533a142.22140391 142.22140391 0 0 0 194.40867227 13.15769706c18.18423063-14.78392831 32.82032611-34.00303779 42.87340059-55.58757789l6.35708516-16.70583923 2073.44613941-6368.91689346 9.16603526-25.4283551c84.26839552-217.32376416 311.34956131-334.11681299 526.89924725-271.28511062l24.83700274 7.98332341 30.89841506 12.56633758c50.56103728 22.61941209 96.68690029 55.14405839 136.01215159 95.65202143l22.61941199 25.1326824 2782.6312411 3336.73292137L125969.5943222 458.51691626l-1e-8 308.98413075-2111.58867189 1e-8L120987.2621917-2674.64129045l-13.60121654-14.1925759a145.76954623 145.76954623 0 0 0-49.52615843-30.15921602c-71.55421799-25.72403471-148.72632902 9.60955482-180.5117832 79.53754168l-6.50493213 16.70583922-2073.44613241 6368.76905361-11.53146577 31.63760737c-29.56785666 72.88477652-76.43291872 136.75135073-136.30783122 185.24263718-185.98183642 150.79607988-450.02281593 121.81958249-602.592967-61.50114366l-17.00151882-21.88021972-2290.62206369-3112.01718629-3574.75418663 0L109160.11847736-2674.64129045l-13.60121654-14.1925759a145.76954623 145.76954623 0 0 0-49.52616543-30.15921602c-71.55421799-25.72403471-148.72632902 9.60955482-180.51177628 79.53754168l-6.50493208 16.70583922-2073.44613237 6368.76905361-11.53146581 31.63760737c-29.56785666 72.88477652-76.43291872 136.75135073-136.3078312 185.24263718-185.98183642 150.79607988-450.02281593 121.81958249-602.59297375-61.50114366l-17.00151911-21.88021972-2290.62205664-3112.01718629-3574.75418663 0z m47308.57486435 0l-2870.74345848-3442.14233743-13.60121658-14.19257594a145.76954623 145.76954623 0 0 0-49.52616532-30.15921602c-71.55421799-25.72403471-148.72632902 9.60955482-180.51178327 79.53754168l-6.50492509 16.70583922-2073.44613247 6368.76905361-11.53146577 31.63760737c-29.56785666 72.88477652-76.43291872 136.75135073-136.30783115 185.24263718-185.98183642 150.79607988-450.02281593 121.81958249-602.59297392-61.50114366l-17.00151887-21.88021972-2290.62205678-3112.01718629-3574.75419369 0L132814.40590608-2674.64129045l-13.60120962-14.1925759a145.76954623 145.76954623 0 0 0-49.52616551-30.15921602c-71.55421799-25.72403471-148.72632902 9.60955482-180.51178313 79.53754168l-6.50492502 16.70583922-2073.4461325 6368.76905361-11.53146574 31.63760737c-29.56785666 72.88477652-76.43291872 136.75135073-136.30783118 185.24263718-185.98183642 150.79607988-450.02281593 121.81958249-602.59297384-61.50114366l-17.00151894-21.88021972-2290.62206385-3112.01718629L125969.5943222 767.50104701l-1e-8-308.98413075 1607.75234892 0 2379.02996092 3232.06269772 12.12281817 14.63609533a142.22140391 142.22140391 0 0 0 194.40867941 13.15769706c18.18423063-14.78392831 32.82032611-34.00303779 42.87339344-55.58757789l6.35709231-16.70583923 2073.44613238-6368.91689346 9.16603534-25.4283551c84.26839552-217.32376416 311.34956131-334.11681299 526.89925429-271.28511062l24.83700252 7.98332341 30.89840826 12.56633758c50.56103728 22.61941209 96.68690029 55.14405839 136.01215159 95.65202143l22.61941196 25.1326824 2782.63124104 3336.73292137 3585.84213287 0 2379.02996076 3232.06269772 12.12282529 14.63609533a142.22140391 142.22140391 0 0 0 194.40867231 13.15769706c18.18423063-14.78392831 32.82032611-34.00303779 42.87339349-55.58757789l6.35709236-16.70583923 2073.44613227-6368.91689346 9.16603527-25.4283551c84.26839552-217.32376416 311.34956131-334.11681299 526.89925442-271.28511062l24.83700257 7.98332341 30.89840811 12.56633758c50.56103728 22.61941209 96.68690029 55.14405839 136.01215849 95.65202143l22.61941203 25.1326824 2782.6312341 3336.73292137 3585.84213296 0 2379.0299608 3232.06269772 12.12282501 14.63609533a142.22140391 142.22140391 0 0 0 194.40867256 13.15769706c18.18423063-14.78392831 32.82032611-34.00303779 42.8733935-55.58757789l6.3570922-16.70583923 2073.44613242-6368.91689346 9.16603523-25.4283551c84.26839552-217.32376416 311.34956131-334.11681299 526.89925425-271.28511062l24.83700268 7.98332341 30.89841507 12.56633758c50.56103728 22.61941209 96.68690029 55.14405839 136.01215166 95.65202143l22.61941198 25.1326824 2782.48339431 3336.73292137 3585.98997963 0 2379.02995377 3232.06269772 12.12282518 14.63609533a142.22140391 142.22140391 0 0 0 194.40867244 13.15769706c18.18423063-14.78392831 32.82032611-34.00303779 42.87340047-55.58757789l6.35708518-16.70583923 2073.44613255-6368.91689346 9.16603524-25.4283551c84.26839552-217.32376416 311.34956131-334.11681299 526.89925434-271.28511062l24.83700249 7.98332341 30.89841524 12.56633758c50.56103728 22.61941209 96.68690029 55.14405839 136.01215144 95.65202143l22.61941207 25.1326824 2782.48340109 3336.73292136L173278.16918653 458.51691626l-1e-8 308.98413076-2111.58867203 0-2870.74345834-3442.14233743-13.60121658-14.19257594a145.76954623 145.76954623 0 0 0-49.5261654-30.15921602c-71.55421799-25.72403471-148.72632902 9.60955482-180.51177629 79.53754152l-6.50493197 16.70583938-2073.44613243 6368.76905361-11.53146581 31.63760737c-29.56785666 72.88477652-76.43291872 136.75135073-136.30783118 185.24263718-185.98183642 150.79607988-450.02281593 121.81958249-602.592974-61.50114366l-17.00151887-21.88021972-2290.62205674-3112.01718629-3574.75418665 0-2870.74345849-3442.14233743-13.60121647-14.19257594a145.76954623 145.76954623 0 0 0-49.52616538-30.15921602c-71.55421799-25.72403471-148.72632902 9.60955482-180.51177625 79.53754152l-6.5049321 16.70583938-2073.44613254 6368.76905361-11.53146574 31.63760737c-29.56785666 72.88477652-76.43291872 136.75135073-136.30783116 185.24263718-185.98183642 150.79607988-450.02281593 121.81958249-602.59297401-61.50114366l-17.0015187-21.88021972-2290.62205687-3112.01718629-3574.75418665 0z" p-id="24193"></path></svg>