<?xml version="1.0" standalone="no"?><!DOCTYPE svg PUBLIC "-//W3C//DTD SVG 1.1//EN" "http://www.w3.org/Graphics/SVG/1.1/DTD/svg11.dtd"><svg t="1782981820369" class="icon" viewBox="0 0 1049 1024" version="1.1" xmlns="http://www.w3.org/2000/svg" p-id="13877" xmlns:xlink="http://www.w3.org/1999/xlink" width="204.8828125" height="200"><path d="M71.563831 121.995911a3760.12615 3760.12615 0 0 1 919.96009 1.680794c-18.971911 151.601837-37.939692 303.207805-56.903343 454.813771a3301.541948 3301.541948 0 0 0-807.813549-1.474308L71.563831 121.995911z" fill="#C3BFBA" p-id="13878"></path><path d="M980.38608 653.011183a3233.983941 3233.983941 0 0 0-911.316597 0l-19.108191-134.257034a3369.541836 3369.541836 0 0 1 949.532979 0l-19.108191 134.257034z" fill="#98897B" p-id="13879"></path><path d="M561.05482 798.596026c-20.504035-0.243653-41.00807-0.280821-61.507976-0.111502l-2.02356-245.428962a3330.734904 3330.734904 0 0 1 66.447114 0.119761l-2.915578 245.420703z" fill="#98897B" p-id="13880"></path><path d="M404.191725 962.099702a29.42009 29.42009 0 0 1-19.868059-6.611674c-12.471739-10.150839-14.478781-28.441347-4.109066-40.884178a2876.445606 2876.445606 0 0 1 127.112627-142.462778c5.496651-5.769212 13.260515-9.229913 21.528205-9.593328 8.25943-0.371674 16.345412 2.399364 22.407833 7.660621a2803.324872 2803.324872 0 0 1 154.17878 144.395485c11.431051 11.550813 10.980912 29.944563-0.607068 41.090664a29.519203 29.519203 0 0 1-41.334318-0.375804 2756.626055 2756.626055 0 0 0-131.176267-122.598849 2836.68471 2836.68471 0 0 0-106.848116 118.981219 29.440738 29.440738 0 0 1-21.284551 10.398622zM563.970398 553.175323a3330.734904 3330.734904 0 0 0-66.447114-0.119761L493.154046 22.783638a3840.345864 3840.345864 0 0 1 77.118297 0.14041L563.970398 553.175323z" fill="#98897B" p-id="13881"></path></svg>