<?xml version="1.0" standalone="no"?><!DOCTYPE svg PUBLIC "-//W3C//DTD SVG 1.1//EN" "http://www.w3.org/Graphics/SVG/1.1/DTD/svg11.dtd"><svg t="1782980755780" class="icon" viewBox="0 0 1024 1024" version="1.1" xmlns="http://www.w3.org/2000/svg" p-id="6862" xmlns:xlink="http://www.w3.org/1999/xlink" width="200" height="200"><path d="M966.73 870.51H57.27q-24.05-1.14-40.09-17.17Q1.14 837.3 0 813.24V57.27q1.15-24.05 17.18-40.09Q33.22 1.14 57.27 0h909.46q24.05 1.15 40.09 17.18 16.03 16.04 17.18 40.09v755.97q-1.15 24.06-17.18 40.1-16.04 16.03-40.09 17.17zM135.16 412.35V68.72H91.63q-9.16 0-16.03 6.88-6.88 6.88-6.88 16.03v687.25q0 9.16 6.88 16.03 6.88 6.88 16.03 6.88h112.25V469.62h-11.45q-24.05-1.15-40.09-17.19-16.04-16.04-17.18-40.08zM272.61 68.72h-68.73v309.27q0 9.16 6.88 16.03 6.88 6.87 16.03 6.87h22.91q9.16 0 16.04-6.87 6.88-6.87 6.88-16.03V68.72z m136.3 343.63V68.72h-67.58v343.63q-1.14 24.05-17.18 40.08-16.03 16.04-40.09 17.19h-11.45v332.17h205.03V469.62h-11.46q-24.05-1.15-40.08-17.19-16.04-16.04-17.19-40.08zM546.36 68.72h-68.72v309.27q0 9.16 6.87 16.03 6.87 6.87 16.04 6.87h22.9q9.17 0 16.04-6.87 6.87-6.87 6.87-16.03V68.72z m136.31 343.63V68.72h-67.58v343.63q-1.15 24.05-17.19 40.08-16.03 16.04-40.08 17.19h-11.46v332.17h205.03V469.62h-11.45q-24.06-1.15-40.1-17.19-16.04-16.04-17.18-40.08zM820.12 68.72h-68.73v309.27q0 9.16 6.88 16.03 6.88 6.87 16.03 6.87h22.91q9.16 0 16.03-6.87 6.88-6.87 6.88-16.03V68.72z m135.16 22.91q0-9.16-6.88-16.03-6.88-6.88-16.03-6.88h-43.53v343.63q-1.14 24.05-17.18 40.08-16.04 16.04-40.09 17.19h-11.45v332.17h112.25q9.16 0 16.03-6.88 6.88-6.88 6.88-16.03V91.63z" fill="#666666" p-id="6863"></path></svg>