<?xml version="1.0" standalone="no"?><!DOCTYPE svg PUBLIC "-//W3C//DTD SVG 1.1//EN" "http://www.w3.org/Graphics/SVG/1.1/DTD/svg11.dtd"><svg t="1782973193570" class="icon" viewBox="0 0 1280 1024" version="1.1" xmlns="http://www.w3.org/2000/svg" p-id="6664" xmlns:xlink="http://www.w3.org/1999/xlink" width="250" height="200"><path d="M390.815443 128.470282a47.99944 47.99944 0 0 0-54.319367 40.759525l-56.379342 394.655398 54.939359 274.716797a47.639445 47.639445 0 0 1 0 17.579795c0-0.499994 0.379996-0.89999 0.459995-1.399984l95.99888-671.992164a47.99944 47.99944 0 0 0-40.699525-54.319367z m-191.497767 192.09776a47.99944 47.99944 0 0 0-54.759362 40.119532L118.818615 528.005623H31.999627a31.999627 31.999627 0 0 0-31.999627 31.999627v31.999627a31.999627 31.999627 0 0 0 31.999627 31.999627h127.998507a47.99944 47.99944 0 0 0 47.419447-40.699525l31.999627-207.997575a47.99944 47.99944 0 0 0-40.099532-54.739362z m704.231788-191.997761a47.879442 47.879442 0 0 0-54.939359 39.799536l-77.079101 481.854381 43.999487 319.216278a47.219449 47.219449 0 0 1-1.019988 16.559807c0.179998-0.85999 0.699992-1.539982 0.83999-2.399972l127.998507-799.990672a47.99944 47.99944 0 0 0-39.799536-54.999359z m193.87774 192.337757a47.819442 47.819442 0 0 0-56.499341 37.659561l-41.059522 205.317606 39.619538 277.336766a47.679444 47.679444 0 0 1-0.999988 17.639795c0.119999-0.519994 0.459995-0.919989 0.559994-1.459983l95.99888-479.994404a47.99944 47.99944 0 0 0-37.619561-56.459341zM646.552461 0.451775a47.99944 47.99944 0 0 0-54.119369 40.999522l-83.99902 608.772901 50.939406 318.17629a47.559445 47.559445 0 0 1-0.679992 16.779805c0.179998-0.939989 0.739991-1.67998 0.85999-2.61997l127.998507-927.989179A47.99944 47.99944 0 0 0 646.552461 0.451775z" opacity=".4" p-id="6665"></path><path d="M238.617218 357.567611a47.399447 47.399447 0 0 1 0.81999 17.739793l-31.999627 207.997575a47.879442 47.879442 0 0 1-15.619818 28.459668l49.119428 245.637136A47.99944 47.99944 0 0 0 287.996642 896.001332a46.779455 46.779455 0 0 0 9.499889-0.939989 47.99944 47.99944 0 0 0 37.619561-56.459341l-95.99888-479.994403c-0.139998-0.399995-0.399995-0.599993-0.499994-1.039988z m191.997761-191.357769a47.299448 47.299448 0 0 1 0.939989 16.579807l-44.879477 313.696342 77.999091 487.11432A47.99944 47.99944 0 0 0 511.99403 1023.99984a47.119451 47.119451 0 0 0 7.619911-0.599993 47.99944 47.99944 0 0 0 39.819536-54.999359l-127.998508-799.990672c-0.179998-0.799991-0.719992-1.399984-0.879989-2.199974zM1247.985448 528.005623h-86.818987l-25.7397-167.318049c0-0.399995-0.339996-0.699992-0.399996-1.099987a47.659444 47.659444 0 0 1 0 17.819792L1088.187312 611.764647A47.739443 47.739443 0 0 0 1119.986941 624.004504h127.998507a31.999627 31.999627 0 0 0 31.999627-31.999627v-31.999627a31.999627 31.999627 0 0 0-31.999627-31.999627zM686.551995 38.59133a47.319448 47.319448 0 0 1 0.999988 15.999813L639.992538 399.407123l80.439062 583.1532A47.99944 47.99944 0 0 0 767.991045 1023.99984a53.319378 53.319378 0 0 0 6.619923-0.439995 47.99944 47.99944 0 0 0 40.999522-54.119369l-127.998508-927.989179c-0.199998-1.039988-0.83999-1.839979-1.059987-2.859967z m256.137013 128.378503a47.719444 47.719444 0 0 1 0.679992 16.639806l-49.999417 312.876352 51.179403 358.295822A47.99944 47.99944 0 0 0 991.988433 896.001332a53.99937 53.99937 0 0 0 6.87992-0.459994 47.99944 47.99944 0 0 0 40.679526-54.319367l-95.998881-671.992164c-0.179998-0.81999-0.699992-1.459983-0.85999-2.259974z" p-id="6666"></path></svg>